<svg width="123" height="119" xmlns="http://www.w3.org/2000/svg" data-name="Layer 1">

 <title>modify</title>
 <g>
  <title>Layer 1</title>
  <path id="svg_1" fill-rule="evenodd" d="m104.84,1.6205l16.41,16.38a5.58,5.58 0 0 1 0,7.88l-9.08,9.12l-24.3,-24.3l9.13,-9.08a5.6,5.6 0 0 1 7.88,0l-0.04,0zm-73.58,1.81l36.3,0l-16.44,16.44l-19.86,0a14.75,14.75 0 0 0 -10.46,4.33l0,0a14.75,14.75 0 0 0 -4.33,10.46l0,68.07l68.03,0a14.78,14.78 0 0 0 10.5,-4.3l0,0a14.78,14.78 0 0 0 4.33,-10.47l0,-12.67l16.44,-16.44l0,29.08a31.22,31.22 0 0 1 -9.18,22.07l0,0.05a31.2,31.2 0 0 1 -22,9.15l-72,0a12.5,12.5 0 0 1 -8.83,-3.67l0,0a12.51,12.51 0 0 1 -3.76,-8.88l0,-72a31.15,31.15 0 0 1 9.18,-22l0.05,-0.05a31.17,31.17 0 0 1 22,-9.16l0.03,-0.01zm41.07,71.37l-19.73,6.1c-13.85,3 -13.73,6.15 -11.16,-6.91l6.64,-23.44l0,0l0,0l35.19,-35.24l24.3,24.3l-35.22,35.22l0,0l-0.02,-0.03zm-20.11,-20.1l16,16l-13,4c-10.15,3.13 -10.1,5.22 -7.34,-4.55l4.34,-15.4l0,-0.05z" class="cls-1"/>
 </g>
</svg>